<svg width="22" height="22" viewBox="0 0 22 22" fill="none" xmlns="http://www.w3.org/2000/svg">
<path d="M7.17188 14.7656C7.17188 14.9219 7.25 15 7.40625 15H18.9844V17.0156H6.98438C6.45312 17.0156 5.98438 16.8125 5.57812 16.4062C5.20312 16 5.01562 15.5312 5.01562 15C5.01562 14.6875 5.09375 14.375 5.25 14.0625L6.60938 11.5781L3 3.98438H0.984375V2.01562H4.26562C4.89062 3.32812 5.51562 4.65625 6.14062 6C6.29688 6.28125 6.65625 7.03125 7.21875 8.25C7.78125 9.4375 8.21875 10.3594 8.53125 11.0156H15.5625C17.9062 6.76562 19.1875 4.42188 19.4062 3.98438L21.1406 4.96875L17.2969 11.9531C16.9219 12.6406 16.3438 12.9844 15.5625 12.9844H8.10938L7.21875 14.625L7.17188 14.7656ZM15.6094 18.6094C16.0156 18.2031 16.4844 18 17.0156 18C17.5469 18 18 18.2031 18.375 18.6094C18.7812 19.0156 18.9844 19.4844 18.9844 20.0156C18.9844 20.5469 18.7812 21.0156 18.375 21.4219C18 21.7969 17.5469 21.9844 17.0156 21.9844C16.4844 21.9844 16.0156 21.7969 15.6094 21.4219C15.2031 21.0156 15 20.5469 15 20.0156C15 19.4844 15.2031 19.0156 15.6094 18.6094ZM5.57812 18.6094C5.98438 18.2031 6.45312 18 6.98438 18C7.51562 18 7.98438 18.2031 8.39062 18.6094C8.79688 19.0156 9 19.4844 9 20.0156C9 20.5469 8.79688 21.0156 8.39062 21.4219C7.98438 21.7969 7.51562 21.9844 6.98438 21.9844C6.45312 21.9844 5.98438 21.7969 5.57812 21.4219C5.20312 21.0156 5.01562 20.5469 5.01562 20.0156C5.01562 19.4844 5.20312 19.0156 5.57812 18.6094ZM11.0156 9V6H8.01562V3.98438H11.0156V0.984375H12.9844V3.98438H15.9844V6H12.9844V9H11.0156Z" fill="white"/>
</svg>
