<svg id="Capa_1" data-name="Capa 1" xmlns="http://www.w3.org/2000/svg" viewBox="0 0 70.95 68.61">
  <defs>
    <style>
      .cls-1 {
        fill: #fff;
      }
    </style>
  </defs>
  <title>icono-lavapres-blanco</title>
  <g>
    <path class="cls-1" d="M329.57,361.17H287.51a14.72,14.72,0,0,0-10.68,4.65l4.26,4a8.85,8.85,0,0,1,6.42-2.8h42.06a6.1,6.1,0,0,1,6.1,6.09v44.77a6.11,6.11,0,0,1-6.1,6.1H284.8a6.1,6.1,0,0,1-6.09-6.1v-34.4a5.26,5.26,0,1,0-5.83,0v34.4a11.93,11.93,0,0,0,11.92,11.92h44.77a11.92,11.92,0,0,0,11.92-11.92V373.09A11.93,11.93,0,0,0,329.57,361.17Z" transform="translate(-270.54 -361.17)"/>
    <path class="cls-1" d="M329.14,395.48a22,22,0,1,0-21.95,21.95A22,22,0,0,0,329.14,395.48Zm-38.53,0a16.58,16.58,0,1,1,16.58,16.58A16.6,16.6,0,0,1,290.61,395.48Z" transform="translate(-270.54 -361.17)"/>
    <path class="cls-1" d="M318.14,395.48h-5.38a5.58,5.58,0,0,1-11.15,0h-5.38a11,11,0,0,0,21.91,0Z" transform="translate(-270.54 -361.17)"/>
  </g>
</svg>
