<svg id="Capa_1" data-name="Capa 1" xmlns="http://www.w3.org/2000/svg" viewBox="0 0 306.49 68.61">
  <defs>
    <style>
      .cls-1 {
        fill: #fff;
      }
    </style>
  </defs>
  <title>logotipo-lavapres</title>
  <g>
    <g>
      <path class="cls-1" d="M212.57,361.17H170.51a14.72,14.72,0,0,0-10.68,4.65l4.26,4a8.85,8.85,0,0,1,6.42-2.8h42.06a6.1,6.1,0,0,1,6.1,6.09v44.77a6.11,6.11,0,0,1-6.1,6.1H167.8a6.1,6.1,0,0,1-6.09-6.1v-34.4a5.26,5.26,0,1,0-5.83,0v34.4a11.93,11.93,0,0,0,11.92,11.92h44.77a11.92,11.92,0,0,0,11.92-11.92V373.09A11.93,11.93,0,0,0,212.57,361.17Z" transform="translate(-153.54 -361.17)"/>
      <path class="cls-1" d="M212.14,395.48a22,22,0,1,0-21.95,21.95A22,22,0,0,0,212.14,395.48Zm-38.53,0a16.58,16.58,0,1,1,16.58,16.58A16.6,16.6,0,0,1,173.61,395.48Z" transform="translate(-153.54 -361.17)"/>
      <path class="cls-1" d="M201.14,395.48h-5.38a5.58,5.58,0,0,1-11.15,0h-5.38a11,11,0,0,0,21.91,0Z" transform="translate(-153.54 -361.17)"/>
    </g>
    <g>
      <path class="cls-1" d="M270.87,387.31c-7.24,0-12.91,6.27-12.91,14.28s5.67,14.29,12.91,14.29a10.1,10.1,0,0,0,8-3.26l.59-.68v3.16h7.63v-27h-7.63v3.17l-.59-.68A10.06,10.06,0,0,0,270.87,387.31Zm8.59,14.28c0,4.25-2.79,7.1-6.93,7.1s-6.93-2.85-6.93-7.1,2.78-7.09,6.93-7.09S279.46,397.35,279.46,401.59Z" transform="translate(-153.54 -361.17)"/>
      <polygon class="cls-1" points="157.66 26.91 151.65 45.21 145.65 26.91 137.18 26.91 147.18 53.93 156.13 53.93 166.12 26.91 157.66 26.91"/>
      <path class="cls-1" d="M333.05,387.31c-7.24,0-12.91,6.27-12.91,14.28s5.67,14.29,12.91,14.29a10.08,10.08,0,0,0,8-3.26l.59-.68v3.16h7.63v-27h-7.63v3.17l-.59-.68A10,10,0,0,0,333.05,387.31Zm8.59,14.28c0,4.25-2.79,7.1-6.93,7.1s-6.93-2.85-6.93-7.1,2.78-7.09,6.93-7.09S341.64,397.35,341.64,401.59Z" transform="translate(-153.54 -361.17)"/>
      <path class="cls-1" d="M370.91,387.31a10,10,0,0,0-8,3.26l-.59.68v-3.17h-7.64v38.1h7.64V411.94l.59.68a10.08,10.08,0,0,0,8,3.26c7.24,0,12.9-6.28,12.9-14.29S378.15,387.31,370.91,387.31Zm-1.66,21.38c-4.15,0-6.93-2.85-6.93-7.1s2.78-7.09,6.93-7.09,6.93,2.85,6.93,7.09S373.39,408.69,369.25,408.69Z" transform="translate(-153.54 -361.17)"/>
      <path class="cls-1" d="M396.15,395v-6.9h-7.63v27h7.63V402.92a6.33,6.33,0,0,1,2.13-5.07,8.33,8.33,0,0,1,6.18-1.63v-8.69c-3.11.11-6.6,1.74-7.65,5.24Z" transform="translate(-153.54 -361.17)"/>
      <path class="cls-1" d="M421.66,387.31c-8.34,0-14.4,6-14.4,14.28s6.17,14.29,15,14.29c5,0,8.92-1.77,11.58-5.27l-6.09-3.5a7.68,7.68,0,0,1-5.38,2c-3.63,0-6-1.38-7-4.1l-.17-.45h19.87a16,16,0,0,0,.27-3C435.39,393.45,429.49,387.31,421.66,387.31Zm-6.54,11.74.12-.43c.82-3,3.08-4.62,6.36-4.62a6,6,0,0,1,6.2,4.62l.12.43Z" transform="translate(-153.54 -361.17)"/>
      <path class="cls-1" d="M450.62,398.33c-2.36-.62-4.22-1.11-4.22-2.5,0-1.18,1-1.89,2.66-1.89a4.26,4.26,0,0,1,3.85,2.33l6.48-3.5a11.85,11.85,0,0,0-10.33-5.46c-5.23,0-10.52,2.7-10.52,8.74,0,5.88,5.4,7.38,9.35,8.48,2.39.67,4.28,1.19,4.28,2.55,0,.93-.58,2.05-3.33,2.05A4.88,4.88,0,0,1,444,406l-6.58,3.75c2.05,4,6,6.12,11.46,6.12s11.19-2.3,11.19-8.75S454.59,399.37,450.62,398.33Z" transform="translate(-153.54 -361.17)"/>
      <path class="cls-1" d="M252.68,409a2.1,2.1,0,0,1-.71-1.71v-32h-7.66v35.22a4.47,4.47,0,0,0,2.1,3.93,10.13,10.13,0,0,0,8.29.75v-5.68A2.92,2.92,0,0,1,252.68,409Z" transform="translate(-153.54 -361.17)"/>
    </g>
  </g>
</svg>
